<svg xmlns="http://www.w3.org/2000/svg" fill="none" viewBox="0 0 263 54">
  <path stroke="#fff" stroke-linecap="round" d="M68.5.5v53" />
  <path fill="#fff"
    d="M10.12 41 .664 9.704h7.488l3.744 14.592c.48 1.696.896 3.36 1.248 4.992.384 1.632.816 3.312 1.296 5.04h.192a230.08 230.08 0 0 0 1.248-5.04c.384-1.632.8-3.296 1.248-4.992l3.696-14.592h7.2L18.616 41H10.12ZM37.868 25.16l-.768 2.88h6.672l-.72-2.88a512.899 512.899 0 0 1-1.296-4.992c-.416-1.76-.832-3.456-1.248-5.088h-.192a994.832 994.832 0 0 1-1.2 5.136 85.613 85.613 0 0 1-1.248 4.944ZM26.54 41l9.792-31.296h8.496L54.62 41h-7.488l-1.92-7.44H35.66L33.74 41h-7.2ZM112.858 26.93c0 1.365.037 2.73 0 4.095-.037 2.028-.557 3.984-1.487 5.791-.297.59-.893.774-1.45.516a1.078 1.078 0 0 1-.483-1.439 11.59 11.59 0 0 0 1.19-3.948c.074-.516.074-1.032.11-1.512 0-2.36.074-4.685 0-7.045-.149-5.166-2.564-8.928-7.284-11.103-5.685-2.618-12.523-.258-15.533 5.238-.037.073-.11.185-.15.259-.333.552-.93.737-1.45.48-.52-.296-.706-.887-.41-1.477.781-1.512 1.822-2.84 3.085-3.947 2.157-1.92 4.645-3.098 7.508-3.505 3.753-.552 7.247.259 10.368 2.472 3.27 2.287 5.204 5.46 5.871 9.369.111.774.15 1.549.15 2.36 0 1.07 0 2.25-.037 3.395l.002.002ZM86.473 28.185c0 1.07-.037 2.14 0 3.21.15 2.398 1.004 4.537 2.454 6.42 2.007 2.58 4.644 4.13 7.841 4.61 3.827.552 7.208-.517 10.108-3.098a1.58 1.58 0 0 1 .67-.407c.483-.11.93.11 1.153.516.223.407.15.923-.223 1.291a13.143 13.143 0 0 1-3.42 2.435 13.617 13.617 0 0 1-7.135 1.513c-6.467-.295-11.818-4.796-13.266-10.957-.223-.996-.334-2.065-.37-3.098-.074-1.77-.037-3.504 0-5.275 0-.552.37-.96.892-1.032a1.028 1.028 0 0 1 1.153.738 1.8 1.8 0 0 1 .037.443v2.693h.11l-.004-.002Z" />
  <path fill="#fff"
    d="M98.255 40.873c-4.534-.073-8.771-3.504-9.736-7.931a11.24 11.24 0 0 1-.26-2.509 249.054 249.054 0 0 1 0-7.415c.037-4.5 3.197-8.485 7.508-9.703.52-.148 1.003 0 1.263.368s.297.887-.037 1.218c-.186.185-.446.368-.706.443-2.08.626-3.717 1.88-4.831 3.763-.67 1.144-1.077 2.398-1.077 3.726 0 2.73-.074 5.46.037 8.19.11 3.097 1.71 5.384 4.46 6.823 1.153.626 2.416.848 3.717.887.557 0 .966.406 1.04.923.074.553-.26 1.032-.78 1.144-.186.073-.37.073-.594.073h-.004ZM106.8 26.894c0-1.327.037-2.693 0-4.02-.11-3.468-2.49-6.53-5.834-7.49-.186-.036-.371-.109-.557-.148-.707-.148-1.077-.664-.93-1.29.11-.59.707-.923 1.413-.775 1.301.295 2.491.775 3.568 1.55 2.564 1.77 4.05 4.205 4.46 7.266.074.407.074.811.074 1.218v7.525a10.258 10.258 0 0 1-6.541 9.444c-.707.258-1.301.073-1.524-.48-.26-.59 0-1.18.631-1.439.893-.368 1.747-.847 2.453-1.476 1.71-1.549 2.714-3.43 2.787-5.718.037-1.439 0-2.803 0-4.169v.002Z" />
  <path fill="#fff"
    d="M104.906 25.86v3.06c0 .48-.297.887-.743 1.033-.447.11-.93 0-1.153-.406a1.814 1.814 0 0 1-.187-.738v-5.497c0-1.697-.743-2.988-2.267-3.799-2.824-1.439-6.057.553-6.094 3.763v4.537c0 .665-.447 1.106-1.077 1.106-.557 0-1.04-.444-1.04-.996 0-1.698-.037-3.432 0-5.127.11-3.025 2.637-5.57 5.723-5.828a6.29 6.29 0 0 1 6.875 6.235c-.037.886-.037 1.77-.037 2.657ZM98.699 36.89c-2.527-.11-4.384-1.145-5.611-3.247-.334-.59-.223-1.254.334-1.55.557-.33 1.153-.109 1.523.517 1.3 2.214 4.014 2.803 6.095 1.364.78-.553 1.3-1.327 1.597-2.25.186-.59.557-.886 1.114-.886.67 0 1.114.626 1.003 1.254-.52 2.287-2.563 4.279-4.943 4.647-.41.073-.817.11-1.114.148l.002.002Z" />
  <path fill="#fff"
    d="M99.703 26.044c0-.11 0-.221-.037-.294-.15-.443-.484-.701-.967-.701h-.186a.956.956 0 0 0-.817.959v5.423c0 .149 0 .332.036.48.11.443.484.701.967.701h.186c.484-.073.817-.48.817-.996v-5.572ZM98.699 23.278a1 1 0 0 0 1.004-.996 1 1 0 0 0-1.004-.996 1 1 0 0 0-1.003.996 1 1 0 0 0 1.003.996ZM91.861 6.163c0-.258-.074-.517-.26-.702a1.323 1.323 0 0 0-.93-.367H80.416c-.817 0-1.227.406-1.227 1.217v10.107c0 .738.41 1.218 1.04 1.218.297 0 .52-.11.707-.259.223-.221.334-.553.334-.923V7.195h9.365c.706 0 1.226-.443 1.226-1.032ZM91.861 48.03c0-.626-.483-1.032-1.227-1.032H81.31v-9.296c0-.701-.41-1.18-1.04-1.18-.298 0-.558.109-.744.294a1.305 1.305 0 0 0-.297.848v10.182c0 .774.447 1.18 1.227 1.18h10.219c.37 0 .706-.11.93-.33a.98.98 0 0 0 .26-.665h-.003ZM105.576 6.236c.074.589.52.959 1.114.959h9.438v9.223c0 .185 0 .33.037.48.15.516.594.81 1.153.737.559-.073.893-.516.893-1.106V6.236c0-.702-.446-1.145-1.19-1.145H106.69c-.111 0-.223 0-.334.037-.483.148-.854.626-.78 1.105v.003ZM117.169 36.521c-.297 0-.52.11-.707.258-.223.222-.334.517-.334.887v9.295h-9.401c-.67 0-1.153.444-1.153 1.033a1 1 0 0 0 .297.701c.223.222.52.332.893.332h10.331c.743 0 1.19-.444 1.19-1.181V37.664c-.074-.665-.483-1.145-1.114-1.145l-.002.002ZM127.724 13.836c0-.996.853-1.807 1.82-1.807.967 0 1.821.811 1.821 1.807 0 .996-.817 1.807-1.821 1.807a1.816 1.816 0 0 1-1.82-1.807Zm.63 27.15V21.212c0-.626.557-1.181 1.19-1.181.633 0 1.19.553 1.19 1.18v19.773c0 .626-.557 1.181-1.19 1.181-.633 0-1.19-.553-1.19-1.18ZM156.078 40.985c0 .626-.557 1.181-1.189 1.181-.633 0-1.227-.553-1.227-1.18v-2.4c-1.597 2.25-4.421 3.985-7.655 3.985-5.834 0-9.848-4.428-9.848-11.437 0-7.008 4.014-11.509 9.848-11.509 3.084 0 5.834 1.549 7.655 4.02v-10.77c0-.627.594-1.182 1.227-1.182.63 0 1.189.553 1.189 1.181v28.111Zm-2.416-4.464V25.713c-1.264-2.14-4.161-3.984-7.248-3.984-4.867 0-7.691 4.057-7.691 9.369 0 5.311 2.824 9.332 7.691 9.332 3.121 0 5.984-1.807 7.248-3.91v.001ZM170.794 19.627c6.689 0 10.406 5.312 10.406 10.918 0 .811-.484 1.327-1.414 1.327h-16.983c.224 4.759 3.42 8.668 8.622 8.668 2.49 0 4.757-.811 6.615-2.472.149-.148.37-.185.593-.185.557 0 .967.407.967.996 0 .331-.149.553-.371.775-2.193 1.918-4.681 2.951-7.99 2.951-6.429 0-11.038-4.759-11.038-11.51 0-6.38 4.497-11.472 10.591-11.472l.002.004Zm-7.991 10.365h15.98c-.037-3.726-2.49-8.336-8.028-8.336-5.203 0-7.804 4.537-7.952 8.336ZM202.309 26.71v14.239c0 .626-.557 1.18-1.19 1.18-.633 0-1.19-.552-1.19-1.18v-13.76c0-4.206-2.156-5.46-5.351-5.46-2.824 0-5.76 1.77-7.171 3.763v15.457c0 .626-.557 1.18-1.19 1.18-.633 0-1.19-.552-1.19-1.18V21.176c0-.626.557-1.18 1.19-1.18.633 0 1.19.552 1.19 1.18v2.25c1.597-1.918 4.757-3.835 7.915-3.835 4.534.036 6.987 2.213 6.987 7.118ZM216.949 40.8c0 .443-.223.738-.557.887-.78.552-1.747.847-3.047.847-2.898 0-4.311-1.77-4.311-4.759V22.21h-2.676c-.594 0-1.078-.443-1.078-1.033 0-.59.484-1.032 1.078-1.032h2.676V15.2c0-.626.557-1.181 1.227-1.181.631 0 1.19.553 1.19 1.18v4.945h3.493c.594 0 1.078.443 1.078 1.032 0 .59-.484 1.033-1.078 1.033h-3.493v15.196c0 1.77.743 2.989 2.267 2.989 1.337 0 1.634-.665 2.193-.665.594 0 1.04.48 1.04 1.069l-.002.002ZM220.926 13.836c0-.996.854-1.807 1.821-1.807.966 0 1.82.811 1.82 1.807 0 .996-.817 1.807-1.82 1.807a1.816 1.816 0 0 1-1.821-1.807Zm.631 27.15V21.212c0-.626.557-1.181 1.19-1.181.633 0 1.19.553 1.19 1.18v19.773c0 .626-.557 1.181-1.19 1.181-.631-.036-1.19-.553-1.19-1.18ZM240.139 40.8c0 .443-.223.738-.557.887-.78.552-1.747.847-3.047.847-2.898 0-4.311-1.77-4.311-4.759V22.21h-2.676c-.594 0-1.077-.443-1.077-1.033 0-.59.483-1.032 1.077-1.032h2.676V15.2c0-.626.557-1.181 1.227-1.181.631 0 1.19.553 1.19 1.18v4.945h3.494c.593 0 1.077.443 1.077 1.032 0 .59-.484 1.033-1.077 1.033h-3.494v15.196c0 1.77.743 2.989 2.267 2.989 1.337 0 1.634-.665 2.193-.665.594 0 1.041.48 1.041 1.069l-.003.002ZM244.45 48.62c.223 0 .557.149 1.153.149 1.45 0 2.453-.59 3.344-2.657l1.747-3.873-8.621-20.398c-.074-.222-.074-.368-.074-.553 0-.665.483-1.218 1.19-1.218.483 0 .966.332 1.153.775l7.73 18.443 7.692-18.443c.15-.443.594-.775 1.077-.775.744 0 1.227.553 1.227 1.218 0 .185-.037.331-.149.59l-10.666 24.971c-1.153 2.767-3.047 4.058-5.648 4.058-.409 0-.817-.037-1.226-.073-.631-.074-1.041-.553-1.041-1.07 0-.7.52-1.144 1.114-1.144h-.002Z" />
</svg>