<svg xmlns="http://www.w3.org/2000/svg" fill="none" viewBox="0 0 50 50">
  <path
    d="M35.858 23.9308C35.858 25.2947 35.8948 26.6608 35.858 28.0247C35.8212 30.0533 35.301 32.0089 34.3712 33.8159C34.0743 34.4054 33.4783 34.5904 32.9213 34.3322C32.4012 34.0741 32.1779 33.4459 32.438 32.893C33.0687 31.6388 33.4783 30.3115 33.6278 28.9454C33.7015 28.4291 33.7015 27.9128 33.7384 27.4331C33.7384 25.0731 33.8121 22.7476 33.7384 20.3877C33.5888 15.2224 31.1745 11.4598 26.4541 9.28491C20.7692 6.6668 13.9314 9.02675 10.921 14.5233C10.8842 14.5964 10.8105 14.7083 10.7715 14.7814C10.4377 15.3343 9.84171 15.5193 9.32155 15.2612C8.8014 14.9664 8.61501 14.3748 8.91193 13.7854C9.69216 12.273 10.7325 10.9457 11.996 9.83779C14.1525 7.91885 16.6405 6.73995 19.5035 6.33335C23.2573 5.78048 26.751 6.59151 29.8719 8.80517C33.1424 11.092 35.0756 14.2651 35.7431 18.174C35.8537 18.9484 35.8927 19.7229 35.8927 20.5339C35.8927 21.6031 35.8927 22.7842 35.8558 23.9287L35.858 23.9308Z"
    fill="#112e51" />
  <path
    d="M9.47328 25.185C9.47328 26.2542 9.43643 27.3255 9.47328 28.3947C9.62282 30.7934 10.4767 32.9317 11.9267 34.8141C13.9336 37.3956 16.5712 38.9446 19.768 39.4243C23.5954 39.9772 26.9764 38.908 29.8763 36.3265C30.0626 36.1415 30.2859 35.9952 30.546 35.9199C31.0293 35.8102 31.4757 36.0296 31.699 36.4362C31.9222 36.8428 31.8485 37.3591 31.4757 37.7269C30.4723 38.723 29.3193 39.534 28.0557 40.1622C25.8256 41.3067 23.448 41.823 20.921 41.6745C14.4537 41.3798 9.10267 36.8793 7.65491 30.7181C7.43168 29.722 7.32115 28.6529 7.2843 27.6202C7.21062 25.8497 7.24746 24.1158 7.2843 22.3453C7.2843 21.7924 7.65491 21.3858 8.17723 21.3127C8.69738 21.2395 9.18069 21.5343 9.33024 22.0506C9.36708 22.199 9.36708 22.3453 9.36708 22.4937V25.1871H9.47761L9.47328 25.185Z"
    fill="#112e51" />
  <path
    d="M21.2547 37.8732C16.7207 37.8001 12.4837 34.3688 11.5192 29.9415C11.3328 29.1304 11.2591 28.2807 11.2591 27.4331C11.2223 24.9613 11.2223 22.4894 11.2591 20.0176C11.296 15.5172 14.4559 11.533 18.7667 10.3154C19.2868 10.1669 19.7701 10.3154 20.0302 10.6832C20.2903 11.0511 20.3271 11.5696 19.9934 11.9009C19.807 12.0859 19.5469 12.2687 19.2868 12.344C17.2062 12.97 15.5699 14.2242 14.4559 16.1066C13.7862 17.2511 13.3788 18.5053 13.3788 19.8326C13.3788 22.5626 13.3051 25.2926 13.4156 28.0225C13.5261 31.1204 15.1256 33.4072 17.8759 34.8464C19.0289 35.4724 20.2925 35.694 21.5928 35.7327C22.1498 35.7327 22.5595 36.1393 22.6331 36.6556C22.7068 37.2085 22.3731 37.6882 21.8529 37.8001C21.6665 37.8732 21.4823 37.8732 21.2591 37.8732H21.2547Z"
    fill="#112e51" />
  <path
    d="M29.8004 23.8942C29.8004 22.5669 29.8372 21.2008 29.8004 19.8735C29.6899 16.4056 27.3102 13.3444 23.966 12.3849C23.7796 12.3483 23.5954 12.2752 23.409 12.2365C22.7025 12.088 22.3319 11.5717 22.4793 10.9457C22.5898 10.3563 23.1858 10.0228 23.8923 10.1712C25.1927 10.466 26.3826 10.9457 27.4597 11.7202C30.0236 13.4907 31.5104 15.9259 31.92 18.9872C31.9937 19.3938 31.9937 19.7982 31.9937 20.2048V27.73C31.9569 31.8991 29.3561 35.6617 25.4528 37.1741C24.7463 37.4322 24.1524 37.2472 23.9292 36.6943C23.6691 36.1049 23.9292 35.5133 24.5599 35.2551C25.4528 34.8873 26.3067 34.4075 27.0133 33.7794C28.7233 32.2304 29.7267 30.3481 29.8004 28.0613C29.8372 26.6221 29.8004 25.2582 29.8004 23.8921V23.8942Z"
    fill="#112e51" />
  <path
    d="M27.9062 22.8595V25.9207C27.9062 26.4005 27.6093 26.8071 27.1628 26.9533C26.7163 27.0631 26.233 26.9533 26.0098 26.5468C25.8993 26.3252 25.8234 26.0304 25.8234 25.8089V20.3124C25.8234 18.615 25.08 17.3242 23.5564 16.5132C20.7324 15.074 17.4988 17.0661 17.462 20.2758V24.8128C17.462 25.4776 17.0155 25.9186 16.3848 25.9186C15.8278 25.9186 15.3445 25.4754 15.3445 24.9225C15.3445 23.2252 15.3077 21.4913 15.3445 19.796C15.455 16.7713 17.9821 14.2264 21.0683 13.9682C24.7853 13.6369 27.9062 16.5132 27.943 20.2026C27.9062 21.089 27.9062 21.9731 27.9062 22.8595Z"
    fill="#112e51" />
  <path
    d="M21.699 33.8891C19.1719 33.7794 17.3146 32.7446 16.0879 30.6428C15.7541 30.0533 15.8646 29.3886 16.4216 29.0939C16.9786 28.7626 17.5746 28.9842 17.9452 29.6102C19.2456 31.8238 21.9591 32.4133 24.0397 30.9741C24.8199 30.4212 25.3401 29.6468 25.637 28.7239C25.8234 28.1344 26.194 27.8375 26.751 27.8375C27.4207 27.8375 27.865 28.4635 27.7545 29.0917C27.2343 31.3785 25.1905 33.3706 22.8108 33.7385C22.4012 33.8116 21.9938 33.8482 21.6968 33.8869L21.699 33.8891Z"
    fill="#112e51" />
  <path
    d="M22.7025 23.0445C22.7025 22.9348 22.7025 22.8229 22.6656 22.7497C22.5161 22.3066 22.1823 22.0484 21.699 22.0484H21.5126C21.0293 22.1216 20.6956 22.5282 20.6956 23.0079V28.4313C20.6956 28.5797 20.6956 28.7626 20.7324 28.911C20.8429 29.3542 21.2157 29.6123 21.699 29.6123H21.8854C22.3687 29.5392 22.7025 29.1326 22.7025 28.6163V23.0466V23.0445Z"
    fill="#112e51" />
  <path
    d="M21.699 20.2779C22.2532 20.2779 22.7025 19.832 22.7025 19.2819C22.7025 18.7318 22.2532 18.2859 21.699 18.2859C21.1448 18.2859 20.6956 18.7318 20.6956 19.2819C20.6956 19.832 21.1448 20.2779 21.699 20.2779Z"
    fill="#112e51" />
  <path
    d="M14.8612 3.16266C14.8612 2.90451 14.7875 2.64635 14.6011 2.46134C14.3779 2.23976 14.0441 2.09348 13.6713 2.09348H3.41566C2.59858 2.09348 2.18896 2.50007 2.18896 3.3111V13.4178C2.18896 14.1557 2.59858 14.6354 3.22927 14.6354C3.52619 14.6354 3.74942 14.5257 3.93581 14.3773C4.15904 14.1557 4.26957 13.8244 4.26957 13.4544V4.19527H13.6345C14.341 4.19527 14.8612 3.75211 14.8612 3.16266Z"
    fill="#112e51" />
  <path
    d="M14.8612 45.0305C14.8612 44.4045 14.3779 43.9979 13.6345 43.9979H4.30858V34.7023C4.30858 34.0009 3.89896 33.5212 3.26827 33.5212C2.97135 33.5212 2.71127 33.6309 2.52489 33.8159C2.3385 34.0375 2.22797 34.3322 2.22797 34.6635V44.8455C2.22797 45.62 2.67443 46.0266 3.45466 46.0266H13.6735C14.0441 46.0266 14.38 45.9169 14.6033 45.6953C14.7528 45.5469 14.8633 45.2887 14.8633 45.0305H14.8612Z"
    fill="#112e51" />
  <path
    d="M28.5759 3.23551C28.6496 3.82496 29.096 4.19498 29.6899 4.19498H39.1285V13.4175C39.1285 13.6025 39.1285 13.7488 39.1653 13.8972C39.3148 14.4136 39.7591 14.7083 40.3183 14.6351C40.8775 14.562 41.2112 14.1188 41.2112 13.5294V3.23551C41.2112 2.5342 40.7648 2.09103 40.0214 2.09103H29.6899C29.5793 2.09103 29.4666 2.09103 29.3561 2.12761C28.8728 2.27604 28.5022 2.75363 28.5759 3.23336V3.23551Z"
    fill="#112e51" />
  <path
    d="M40.1688 33.5212C39.8718 33.5212 39.6486 33.6309 39.4622 33.7793C39.239 34.0009 39.1285 34.2957 39.1285 34.6657V43.9613H29.7267C29.057 43.9613 28.5737 44.4045 28.5737 44.994C28.5737 45.2521 28.6842 45.5103 28.8706 45.6953C29.0939 45.9169 29.3908 46.0266 29.7635 46.0266H40.0951C40.8385 46.0266 41.2849 45.5834 41.2849 44.8455V34.6635C41.2112 33.9988 40.8016 33.519 40.1709 33.519L40.1688 33.5212Z"
    fill="#112e51" />
</svg>